<?xml version="1.0" encoding="UTF-8"?>
<svg width="37px" height="27px" viewBox="0 0 37 27" version="1.1" xmlns="http://www.w3.org/2000/svg" xmlns:xlink="http://www.w3.org/1999/xlink">
    <!-- Generator: sketchtool 51.2 (57519) - http://www.bohemiancoding.com/sketch -->
    <title>19D4CB52-3249-4766-A7AC-1D28835802EF</title>
    <desc>Created with sketchtool.</desc>
    <defs></defs>
    <g id="Page-1" stroke="none" stroke-width="1" fill="none" fill-rule="evenodd">
        <g id="Home" transform="translate(-142.000000, -1693.000000)" fill="#565656">
            <g id="break" transform="translate(0.000000, 1686.000000)">
                <path d="M142.335089,33.5484957 C142.553767,33.4614596 142.87493,33.3420026 143.282476,33.1973052 C143.688717,33.0543484 144.180689,32.8809291 144.746423,32.6820517 C145.311722,32.4988407 145.940123,32.2634082 146.627925,32.0351561 C146.97237,31.9224444 147.327042,31.7934134 147.694335,31.6619889 C148.061627,31.5340459 148.444586,31.4108899 148.831026,31.26641 C149.217901,31.1232357 149.617397,30.9833252 150.025378,30.842762 C150.429661,30.6906664 150.845475,30.5457514 151.270647,30.4041002 C152.119031,30.1129646 152.995919,29.8113846 153.886298,29.5054528 C154.33127,29.3485703 154.771455,29.1694936 155.219038,28.9984677 C155.662487,28.8206966 156.096579,28.6168146 156.537417,28.4255528 C157.402773,28.0114787 158.263777,27.5821733 159.086921,27.1150072 C159.292978,26.9985965 159.498384,26.8821858 159.702701,26.766863 C159.903972,26.646318 160.104155,26.5266434 160.303467,26.407404 C160.706662,26.1750177 161.088533,25.9206548 161.471491,25.6797825 C162.982655,24.6886593 164.331061,23.6583699 165.422493,22.698362 C166.520889,21.7444468 167.364703,20.8671232 167.934137,20.234371 C168.502047,19.5977022 168.783391,19.2034288 168.783826,19.2034288 L168.96769,19.3196219 C168.96769,19.3196219 168.728994,19.7591541 168.236805,20.4717619 C167.989187,20.8277394 167.678468,21.2533457 167.299861,21.724646 C166.917773,22.1926825 166.483028,22.7205562 165.971691,23.2627909 C165.463183,23.8080719 164.895708,24.3846858 164.266655,24.9649988 C163.643694,25.5535802 162.948928,26.1317173 162.218696,26.71747 C161.847705,27.0018604 161.475843,27.3008292 161.08244,27.5789095 C160.886391,27.7201255 160.689472,27.8615591 160.491683,28.0042983 C160.289324,28.1400745 160.085224,28.2760684 159.880907,28.4129326 C159.475101,28.6929711 159.048842,28.9460285 158.626935,29.2132292 C158.202852,29.4749902 157.765713,29.7186912 157.333579,29.9734893 C156.893612,30.214144 156.453644,30.4547987 156.015853,30.6941479 C155.570881,30.921312 155.13309,31.1610964 154.688771,31.3789041 C154.33845,31.5442727 153.992917,31.7152985 153.644773,31.8745745 C153.945918,31.8952456 154.24641,31.9126528 154.546467,31.9220092 C155.37418,31.9640041 156.199499,31.9402868 157.016333,31.8965511 C157.832296,31.8356259 158.642601,31.7535944 159.435718,31.593448 C160.227746,31.4356952 161.011941,31.2546602 161.766326,30.988765 C162.520276,30.7248281 163.25486,30.4204195 163.962681,30.0657475 C164.666585,29.7019367 165.340462,29.2861219 165.980177,28.824178 C166.625767,28.3715905 167.237631,27.8691748 167.80924,27.3230234 C168.384548,26.7799184 168.916774,26.191337 169.428546,25.5853484 C169.941624,24.9784894 170.411183,24.3326818 170.858331,23.6709901 C171.309831,23.0112567 171.724557,22.3238894 172.119484,21.6230314 C172.519414,20.924567 172.882137,20.2028204 173.230064,19.4714999 C173.578643,18.7399617 173.89676,17.9925395 174.201604,17.2370665 C174.804546,15.724162 175.320453,14.1666516 175.734962,12.5799841 C175.935798,11.8081918 176.117921,11.0305245 176.276761,10.2489407 C175.678388,10.7400417 175.066742,11.2111244 174.42768,11.6399946 C173.754239,12.1069431 173.051205,12.5255866 172.342078,12.928346 L171.260438,13.5003905 C170.894233,13.6794672 170.520849,13.8433126 170.152033,14.0149913 C169.965994,14.0970228 169.784306,14.1910217 169.59435,14.2630441 L169.025787,14.484986 C168.645221,14.6275076 168.272707,14.7922233 167.886049,14.9158146 C167.110558,15.1579924 166.347034,15.4354199 165.554788,15.6125383 L164.37545,15.9086785 L163.171523,16.131926 C162.363611,16.3025167 161.581592,16.3727983 160.790869,16.4650565 L159.606308,16.597569 C159.415047,16.6210687 159.222044,16.6354296 159.032088,16.6650219 L158.464613,16.7655486 C158.081872,16.8199461 157.716755,16.9335282 157.3425,17.0205642 C157.154502,17.0638647 156.977602,17.1361046 156.794391,17.1918077 C156.614661,17.2546913 156.427098,17.3021259 156.254332,17.3819815 C155.538678,17.6530988 154.866324,18.0190855 154.233354,18.4431687 C153.602996,18.8726917 153.042266,19.3983896 152.546813,19.9804433 C151.555472,21.1493376 150.890952,22.5915253 150.528664,24.1066056 C150.343495,24.8642546 150.230348,25.6421394 150.176603,26.4256816 C150.125252,27.2079182 150.130039,28.0021223 150.219686,28.7787017 L150.004707,28.8130809 C149.873065,28.0164833 149.828459,27.2159691 149.840426,26.4117558 C149.855875,25.6088481 149.932032,24.8039821 150.084127,24.0095604 C150.389406,22.424416 151.021288,20.8706046 152.033083,19.5668044 C152.538327,18.9177329 153.122557,18.3217534 153.786424,17.8273886 C154.450945,17.3380283 155.165293,16.9106812 155.923595,16.5851663 C156.108546,16.4916025 156.305465,16.4311125 156.496945,16.3551735 C156.690383,16.2866326 156.880121,16.2015548 157.077475,16.1462869 C157.472402,16.0355336 157.862976,15.8975814 158.2653,15.82186 L158.866284,15.6895652 C159.06712,15.649311 159.269261,15.6245057 159.471185,15.5912144 L160.648565,15.4088739 C161.431237,15.2820188 162.231099,15.1875847 162.972646,14.9991516 L164.103679,14.7502284 L165.225574,14.428195 C165.980395,14.2336694 166.702794,13.9420986 167.43542,13.6870829 C167.801407,13.5565288 168.151292,13.387026 168.509445,13.2394999 L169.043411,13.0105951 C169.222488,12.935744 169.391556,12.8404395 169.566063,12.7564497 C169.911379,12.5812897 170.261046,12.4146156 170.602445,12.233363 L171.608364,11.6571842 C172.266575,11.2531193 172.916734,10.8368693 173.534255,10.3775365 C174.158521,9.9273424 174.749714,9.4360238 175.322193,8.93012666 C175.598533,8.66880087 175.884229,8.41313243 176.142073,8.13875123 C176.275891,8.0044981 176.405575,7.86872183 176.528296,7.72989931 C176.590309,7.66092322 176.655368,7.59194714 176.711289,7.52362383 C176.768298,7.4557357 176.832051,7.38153745 176.872523,7.32909822 C177.043767,7.10933215 177.369064,6.97681974 177.66738,7.00336574 C178.134546,7.04470787 178.517505,7.45965232 178.483561,7.92725359 L178.48269,7.94270249 C178.417849,8.83373422 178.242471,9.65861854 178.105607,10.5085257 C177.96896,11.3529932 177.78292,12.1907153 177.599057,13.0264791 C177.224584,14.6951781 176.764163,16.3508217 176.197776,17.9770906 C175.917955,18.7917482 175.594181,19.5940031 175.250171,20.3877721 C174.907031,21.1821938 174.516022,21.9587731 174.099772,22.7229497 C173.255522,24.2441226 172.264834,25.7017591 171.088759,27.0162213 C170.504965,27.6757371 169.865685,28.2897765 169.196595,28.8672609 C168.526852,29.4453979 167.811851,29.974142 167.061383,30.4460951 C166.306345,30.9108677 165.517363,31.3199372 164.704446,31.6672111 C163.888265,32.0079573 163.047279,32.2832089 162.192585,32.4844798 C161.338979,32.6922784 160.471012,32.8160872 159.605656,32.8907206 C158.738776,32.9610022 157.87255,32.9466413 157.014374,32.908563 C156.585939,32.863957 156.157939,32.8430684 155.734726,32.7756154 L155.100016,32.6883618 C154.889824,32.652677 154.680502,32.6119876 154.471616,32.571951 C154.052755,32.4990583 153.640639,32.3898281 153.228305,32.2947412 C153.114723,32.2662368 153.002882,32.232728 152.890605,32.2009598 C152.602081,32.3199816 152.313991,32.4361748 152.026555,32.5414884 C151.581148,32.6938015 151.140963,32.8380638 150.707306,32.9686179 C150.270602,33.0909036 149.839121,33.1944765 149.419825,33.2952207 C149.002922,33.4059741 148.586454,33.4675522 148.189787,33.5484957 C147.789857,33.6170366 147.40668,33.6953691 147.03199,33.7349705 C146.286309,33.832886 145.603076,33.9096954 144.99143,33.9334127 C144.381524,33.9662688 143.85104,33.9867223 143.410202,33.9699678 C142.97067,33.958218 142.626442,33.9436394 142.390792,33.9273202 C142.155795,33.9131768 142.030027,33.9001214 142.030027,33.9001214 L142,33.6849247 C142,33.6849247 142.116411,33.6342262 142.335089,33.5484957" id="leaf"></path>
            </g>
        </g>
    </g>
</svg>