<svg width="37" height="27" xmlns="http://www.w3.org/2000/svg"><path d="M.335 26.548c.219-.087.54-.206.947-.35l1.464-.516c.566-.183 1.194-.419 1.882-.647.344-.113.699-.242 1.066-.373.368-.128.75-.251 1.137-.396.387-.143.786-.283 1.194-.423.405-.152.82-.297 1.246-.439l2.615-.899c.445-.156.885-.336 1.333-.507.443-.177.878-.381 1.318-.572a41.192 41.192 0 0 0 2.55-1.311l.616-.348.6-.36c.404-.232.786-.486 1.168-.727a35.76 35.76 0 0 0 3.951-2.982 28.776 28.776 0 0 0 2.512-2.464c.568-.636.85-1.03.85-1.03l.184.116s-.239.44-.731 1.152c-.248.356-.559.781-.937 1.253a27.84 27.84 0 0 1-1.328 1.538 33.683 33.683 0 0 1-3.753 3.455c-.371.284-.743.583-1.137.86l-.59.426-.611.409c-.406.28-.832.533-1.254.8-.424.262-.861.506-1.293.76l-1.318.721c-.445.227-.883.467-1.327.685-.35.165-.696.336-1.044.496.3.02.601.038.901.047.828.042 1.653.018 2.47-.025.816-.061 1.627-.143 2.42-.304.792-.157 1.576-.338 2.33-.604a18.655 18.655 0 0 0 2.197-.923 15.98 15.98 0 0 0 2.017-1.242 15.672 15.672 0 0 0 1.83-1.501 21.063 21.063 0 0 0 1.619-1.738c.513-.607.982-1.252 1.43-1.914.45-.66.866-1.347 1.26-2.048a31.9 31.9 0 0 0 1.111-2.152 39.864 39.864 0 0 0 2.505-6.891c.2-.772.383-1.55.542-2.331a24.07 24.07 0 0 1-1.85 1.391c-.673.467-1.376.886-2.085 1.288L29.26 6.5c-.366.18-.74.343-1.108.515-.186.082-.368.176-.558.248l-.568.222c-.38.143-.753.307-1.14.43-.775.243-1.539.52-2.331.698l-1.18.296-1.203.223c-.808.17-1.59.24-2.381.333l-1.185.133c-.191.023-.384.037-.574.067l-.567.1c-.383.055-.748.169-1.122.256-.188.043-.365.115-.549.17-.18.064-.367.111-.54.191-.715.271-1.388.637-2.02 1.061a8.55 8.55 0 0 0-1.687 1.537c-.992 1.17-1.656 2.612-2.018 4.127a13.73 13.73 0 0 0-.352 2.319c-.052.782-.047 1.576.043 2.353l-.215.034a13.457 13.457 0 0 1-.165-2.401 14.23 14.23 0 0 1 .244-2.402c.305-1.586.937-3.14 1.95-4.443a9.22 9.22 0 0 1 1.752-1.74c.665-.489 1.38-.916 2.138-1.242.185-.093.381-.154.573-.23.193-.068.383-.153.58-.209.395-.11.786-.248 1.188-.324l.601-.132c.201-.04.403-.065.605-.099l1.178-.182c.782-.127 1.582-.221 2.324-.41l1.13-.249 1.123-.322c.754-.194 1.477-.486 2.21-.74.365-.131.715-.301 1.073-.449l.534-.228c.18-.075.349-.17.523-.255.345-.175.695-.341 1.036-.523l1.006-.576a26.01 26.01 0 0 0 1.926-1.28 23.26 23.26 0 0 0 1.788-1.447c.277-.261.562-.517.82-.791.134-.135.264-.27.386-.41.062-.068.127-.137.183-.205.057-.068.121-.142.162-.195.17-.22.496-.352.794-.326.468.042.85.457.817.924l-.001.016c-.065.89-.24 1.716-.377 2.566-.137.844-.323 1.682-.507 2.517a45.008 45.008 0 0 1-1.401 4.951c-.28.815-.604 1.617-.948 2.41a28.626 28.626 0 0 1-1.15 2.336c-.844 1.521-1.835 2.979-3.011 4.293a19.767 19.767 0 0 1-1.892 1.851 17.65 17.65 0 0 1-2.136 1.58 17.96 17.96 0 0 1-2.357 1.22c-.816.341-1.657.616-2.511.817-.854.208-1.722.332-2.587.407-.867.07-1.733.056-2.592.018-.428-.045-.856-.066-1.28-.133l-.634-.088c-.21-.035-.42-.076-.628-.116-.42-.073-.831-.182-1.244-.277-.113-.029-.225-.062-.337-.094-.289.119-.577.235-.864.34a37.26 37.26 0 0 1-1.32.428c-.436.122-.868.225-1.287.326-.417.111-.834.173-1.23.253-.4.069-.783.147-1.158.187a22.68 22.68 0 0 1-2.04.198c-.61.033-1.141.054-1.582.037a25.923 25.923 0 0 1-1.38-.07L0 26.685s.116-.05.335-.137" fill="#565656" fill-rule="evenodd"/></svg>